<svg width="20" height="20" viewBox="0 0 20 20" fill="none" xmlns="http://www.w3.org/2000/svg">
    <path fill-rule="evenodd" clip-rule="evenodd"
        d="M11.667 4.167a.833.833 0 0 1 0-1.667h5c.46 0 .833.373.833.833v5a.833.833 0 0 1-1.667 0V5.345l-6.077 6.078a.833.833 0 0 1-1.178-1.179l6.077-6.077zm-7.5 1.666a.833.833 0 0 0-.834.834v9.166c0 .46.374.834.834.834h9.166c.46 0 .834-.373.834-.834v-3.802a.833.833 0 0 1 1.666 0v3.802a2.5 2.5 0 0 1-2.5 2.5H4.167a2.5 2.5 0 0 1-2.5-2.5V6.667a2.5 2.5 0 0 1 2.5-2.5h3.802a.833.833 0 1 1 0 1.666z"
        fill="#F8FBFF" />
</svg>