<svg width="20" height="22" viewBox="0 0 20 22" fill="none" xmlns="http://www.w3.org/2000/svg">
    <path fill-rule="evenodd" clip-rule="evenodd"
        d="M8.543.378a3 3 0 0 1 2.914 0l8.029 4.46a1 1 0 0 1 .514.874v9.412a2 2 0 0 1-1.029 1.748l-8.47 4.705a1.04 1.04 0 0 1-1.002 0l-8.47-4.705A2 2 0 0 1 0 15.124V5.712a1 1 0 0 1 .514-.874zm1.943 1.748a1 1 0 0 0-.972 0L7.56 3.212l6.94 3.856 2.44-1.356zM3.059 5.712 5.5 4.356l6.94 3.856L10 9.568zM11 19.012l7-3.888V7.412L11 11.3zm-9-11.6L9 11.3v7.712l-7-3.888z"
        fill="#51ADEC" />
</svg>