<svg width="20" height="22" viewBox="0 0 20 22" fill="none" xmlns="http://www.w3.org/2000/svg">
    <path fill-rule="evenodd" clip-rule="evenodd"
        d="M13.76 0a5.1 5.1 0 0 1 1.973.388c.626.26 1.194.643 1.67 1.126a5.2 5.2 0 0 1 1.11 1.685 5.2 5.2 0 0 1-1.149 5.632l-8.058 8.144-.006.005c-.58.57-1.304.99-2.146 1.007-.855.017-1.617-.386-2.255-1.025-.75-.753-.956-1.656-.848-2.462a3.43 3.43 0 0 1 .896-1.864l.006-.006L11.1 6.408a1 1 0 0 1 1.423 1.406l-6.137 6.21a1.44 1.44 0 0 0-.354.742c-.034.253.015.516.282.783.38.38.645.442.8.439.164-.003.427-.086.78-.43l8.06-8.145a3.194 3.194 0 0 0 .026-4.493 3.1 3.1 0 0 0-1.015-.685 3.06 3.06 0 0 0-3.392.711l-.008.009-8.111 8.208-.005.005c-.454.446-.816.98-1.065 1.57a4.9 4.9 0 0 0-.027 3.742c.226.557.768 1.306 1.248 1.792.494.5 1.342 1.146 1.877 1.368a4.71 4.71 0 0 0 5.221-1.102l.005-.005 7.58-7.67a1 1 0 0 1 1.422 1.405l-7.57 7.66a6.8 6.8 0 0 1-2.19 1.522 6.7 6.7 0 0 1-5.233.038c-.88-.365-1.946-1.214-2.533-1.809-.6-.608-1.325-1.572-1.68-2.447a6.9 6.9 0 0 1 .038-5.27c.35-.83.86-1.583 1.5-2.214l8.097-8.194A5.1 5.1 0 0 1 11.791.412 5.1 5.1 0 0 1 13.76 0"
        fill="#8B22AE" />
</svg>