<svg width="20" height="20" viewBox="0 0 20 20" fill="none" xmlns="http://www.w3.org/2000/svg">
    <path fill-rule="evenodd" clip-rule="evenodd"
        d="M.012 3.602C-.166 1.5 1.616 0 3.512 0h2.374c1.134 0 2.156.682 2.59 1.728l1.17 2.814c.4.963.234 2.068-.433 2.87L7.961 8.918a14 14 0 0 0 2.985 3.251l1.637-1.367a2.8 2.8 0 0 1 2.88-.436l2.801 1.17a2.805 2.805 0 0 1 1.725 2.589q.001.584.005 1.176v.002q.005.59.006 1.188c0 1.896-1.5 3.679-3.602 3.5C7.858 19.26.741 12.162.012 3.601M3.512 2c-.943 0-1.569.706-1.507 1.433.646 7.588 6.992 13.918 14.563 14.565.727.062 1.432-.563 1.432-1.507q0-.584-.005-1.175v-.003q-.005-.59-.006-1.188a.805.805 0 0 0-.495-.743l-2.802-1.17a.8.8 0 0 0-.827.125l-2.832 2.365-.627-.442a15.9 15.9 0 0 1-4.538-4.922l-.355-.605 2.162-2.6A.8.8 0 0 0 7.8 5.31L6.63 2.496A.805.805 0 0 0 5.886 2z"
        fill="#8B22AE" />
</svg>