<svg width="51" height="51" viewBox="0 0 51 51" fill="none" xmlns="http://www.w3.org/2000/svg"><path d="M33.512 6.517a5 5 0 0 0-9.883-1.525l-.763 4.941c-.842 5.458-5.95 9.2-11.408 8.358l-4.941-.762a5 5 0 1 0-1.525 9.883l4.941.762c5.458.842 9.2 5.95 8.358 11.408l-.762 4.942a5 5 0 1 0 9.883 1.525l.762-4.942c.842-5.458 5.95-9.2 11.408-8.358l4.942.763a5 5 0 0 0 1.525-9.883l-4.942-.763c-5.458-.842-9.2-5.95-8.358-11.408z" fill="#8B22AE"/><path d="M17.734 6.432a5 5 0 0 0-8.067 5.91l2.955 4.033c3.264 4.455 2.298 10.713-2.157 13.977l-4.033 2.955a5 5 0 1 0 5.91 8.066l4.033-2.954c4.455-3.264 10.713-2.299 13.977 2.156l2.955 4.034a5 5 0 1 0 8.066-5.91l-2.954-4.034c-3.264-4.455-2.299-10.712 2.156-13.976l4.034-2.955a5 5 0 1 0-5.91-8.067l-4.034 2.955c-4.455 3.264-10.712 2.298-13.976-2.157z" fill="#8B22AE"/></svg>