<svg width="41" height="41" viewBox="0 0 41 41" fill="none" xmlns="http://www.w3.org/2000/svg"><path d="M18.607 1.545c.616-1.805 3.17-1.805 3.786 0l1.957 5.736a2 2 0 0 0 2.775 1.149l5.44-2.672c1.712-.84 3.517.965 2.677 2.677l-2.672 5.44a2 2 0 0 0 1.15 2.774l5.735 1.958c1.805.616 1.805 3.17 0 3.786l-5.736 1.957a2 2 0 0 0-1.149 2.775l2.672 5.44c.84 1.712-.965 3.517-2.677 2.677l-5.44-2.672a2 2 0 0 0-2.774 1.15l-1.958 5.735c-.616 1.805-3.17 1.805-3.786 0l-1.957-5.736a2 2 0 0 0-2.775-1.149l-5.44 2.672c-1.712.84-3.517-.965-2.677-2.677l2.672-5.44a2 2 0 0 0-1.15-2.774l-5.735-1.958c-1.805-.616-1.805-3.17 0-3.786l5.736-1.957a2 2 0 0 0 1.149-2.775l-2.672-5.44c-.84-1.712.965-3.517 2.677-2.677l5.44 2.672a2 2 0 0 0 2.774-1.15z" fill="#8B22AE"/></svg>