<svg fill="#F8FBFF" viewBox="0 0 32 32" xmlns="http://www.w3.org/2000/svg">
    <g stroke-width="0" />
    <g stroke-linecap="round" stroke-linejoin="round" />
    <path
        d="M16.656 1.029c1.637-.025 3.262-.012 4.886-.025a7.76 7.76 0 0 0 2.189 5.213l-.002-.002A8.77 8.77 0 0 0 29 8.45l.028.002v5.036a13.3 13.3 0 0 1-5.331-1.247l.082.034a15.4 15.4 0 0 1-2.077-1.196l.052.034c-.012 3.649.012 7.298-.025 10.934a9.5 9.5 0 0 1-1.707 4.954l.02-.031c-1.652 2.366-4.328 3.919-7.371 4.011h-.014a9.07 9.07 0 0 1-5.139-1.31l.04.023C5.05 28.185 3.32 25.603 3 22.6l-.004-.041a23 23 0 0 1-.012-1.862c.49-4.779 4.494-8.476 9.361-8.476q.822.001 1.604.136l-.056-.008c.025 1.849-.05 3.699-.05 5.548a4.29 4.29 0 0 0-5.465 2.619l-.009.03c-.133.427-.21.918-.21 1.426q0 .31.037.61l-.002-.024a4.26 4.26 0 0 0 4.382 3.586h-.009a4.2 4.2 0 0 0 3.451-1.994l.01-.018c.267-.372.45-.822.511-1.311l.001-.014c.125-2.237.075-4.461.087-6.698.012-5.036-.012-10.06.025-15.083z"
        fill="#F8FBFF" />
</svg>